<?xml version="1.0" encoding="utf-8"?>
<!-- Generator: Adobe Illustrator 18.1.1, SVG Export Plug-In . SVG Version: 6.00 Build 0)  -->
<svg version="1.1" id="Layer_1" xmlns="http://www.w3.org/2000/svg" xmlns:xlink="http://www.w3.org/1999/xlink" x="0px" y="0px"
	 width="93.2px" height="100px" viewBox="9.6 6.6 93.2 100" style="enable-background:new 9.6 6.6 93.2 100;" xml:space="preserve">
<style type="text/css">
	.st0{fill:#FFFFFF;}
</style>
<path class="st0" d="M99.9,103.7c-3.9,3.9-9.9,3.9-13.8,0L64,81c-4.9,2.1-10.1,3.3-15.5,3.3c-21.4,0-38.8-17.5-38.8-38.8
	S26.9,6.6,48.5,6.6s38.8,17.5,38.8,38.8c0,8.9-3.1,17.3-8.2,23.9l21,20.6C103.8,93.6,103.8,99.8,99.9,103.7z M48.5,19.6
	c-14.4,0-25.8,11.7-25.8,25.8c0,14.4,11.7,25.8,25.8,25.8s25.8-11.7,25.8-25.8C74.3,31.1,62.6,19.6,48.5,19.6z"/>
</svg>
